<?xml version="1.0" standalone="no"?>
<!DOCTYPE svg PUBLIC "-//W3C//DTD SVG 1.1//EN" "http://www.w3.org/Graphics/SVG/1.1/DTD/svg11.dtd" >
<svg xmlns="http://www.w3.org/2000/svg">
<metadata></metadata>
<defs>
<font id="print_char_21medium" horiz-adv-x="1792" >
<font-face units-per-em="2048" ascent="1792" descent="-256" />
<missing-glyph horiz-adv-x="500" />
<glyph horiz-adv-x="2048" />
<glyph horiz-adv-x="2048" />
<glyph unicode="&#xd;" horiz-adv-x="0" />
<glyph d="M0 256v768h256v-768h-256zM256 -256v512h256v-256h256v-256h-512zM256 1024v256h512v-256h-512zM768 0v256h256v-256h-256zM768 1280v256h256v-256h-256zM1024 0h512v-256h-512v256zM1024 1024v256h512v-256h-512zM1024 1536v256h256v-256h-256zM1280 256v512h256v-512 h-256zM1536 0v256h256v-256h-256zM1536 768v256h256v-256h-256z" />
<glyph d="M0 0v256h1024v256h-256v256h256v256h-768v256h1024v256h-256v256h768v-768h-256v-256h256v-256h-256v-512h-1024v-256h-256v256h-256zM0 512v512h256v-512h-256z" />
<glyph d="M0 512v256h768v-256h256v-512h-256v256h-256v256h-512zM0 1024v256h768v-256h-768zM768 1280v256h512v-256h-512zM1024 0h768v-256h-768v256z" />
<glyph d="M256 0v1024h256v-256h768v256h256v-1024h-256v512h-768v-512h-256zM512 1024v256h768v-256h-768zM768 1536v256h256v-256h-256z" />
<glyph d="M256 256v256h256v-256h-256zM512 0v256h768v256h-768v256h768v256h256v-1024h-1024zM512 1024v256h768v-256h-768zM768 1536v256h256v-256h-256z" />
<glyph d="M256 768v512h256v-512h-256zM512 512v256h1024v-256h-256v-256h-256v256h-512zM512 1280v256h1024v-256h-1024zM768 0v256h256v-256h-256z" />
<glyph d="M256 0v1024h256v-1024h-256zM512 0h512v-256h-512v256zM512 1280v256h256v-256h-256zM768 1024v256h256v-256h-256zM1024 0v256h256v768h256v-1280h-256v256h-256z" />
<glyph d="M0 -256v1024h256v-256h256v-512h256v512h256v256h256v256h256v256h-256v-256h-256v-256h-256v-256h-256v512h-512v768h1792v-2048h-1792z" />
<glyph unicode=" " />
<glyph unicode="!" d="M768 0v256h256v-256h-256zM768 512v1280h256v-1280h-256z" />
<glyph unicode="&#x22;" d="M512 1024v768h256v-768h-256zM1024 1024v768h256v-768h-256z" />
<glyph unicode="#" d="M256 512v256h256v256h-256v256h256v512h256v-512h256v512h256v-512h256v-256h-256v-256h256v-256h-256v-512h-256v512h-256v-512h-256v512h-256zM768 768h256v256h-256v-256z" />
<glyph unicode="$" d="M256 256v256h512v256h-256v256h256v256h-256v256h256v256h256v-256h512v-256h-512v-256h256v-256h-256v-256h256v-256h-256v-256h-256v256h-512zM256 1024v256h256v-256h-256zM1280 512v256h256v-256h-256z" />
<glyph unicode="%" d="M256 256v256h256v-256h-256zM256 1280v512h512v-512h-512zM512 512v256h256v-256h-256zM768 768v256h256v-256h-256zM1024 0v512h512v-512h-512zM1024 1024v256h256v-256h-256zM1280 1280v256h256v-256h-256z" />
<glyph unicode="&#x26;" d="M256 256v512h256v-512h-256zM256 1024v512h256v-512h-256zM512 0v256h512v-256h-512zM512 768v256h256v-256h-256zM512 1536v256h256v-256h-256zM768 512v256h256v-256h-256zM768 1024v512h256v-512h-256zM1024 256v256h256v-256h-256zM1280 0v256h256v-256h-256z M1280 512v256h256v-256h-256z" />
<glyph unicode="'" d="M768 1024v768h256v-768h-256z" />
<glyph unicode="(" d="M256 512v768h256v-768h-256zM512 256v256h256v-256h-256zM512 1280v256h256v-256h-256zM768 0v256h256v-256h-256zM768 1536v256h256v-256h-256z" />
<glyph unicode=")" d="M768 0v256h256v-256h-256zM768 1536v256h256v-256h-256zM1024 256v256h256v-256h-256zM1024 1280v256h256v-256h-256zM1280 512v768h256v-768h-256z" />
<glyph unicode="*" d="M256 256v256h256v-256h-256zM256 1280v256h256v-256h-256zM512 512v256h256v256h-256v256h256v512h256v-512h256v-256h-256v-256h256v-256h-256v-512h-256v512h-256zM1280 256v256h256v-256h-256zM1280 1280v256h256v-256h-256z" />
<glyph unicode="+" d="M256 768v256h512v512h256v-512h512v-256h-512v-512h-256v512h-512z" />
<glyph unicode="," d="M512 0v256h256v-256h-256zM768 256v512h256v-512h-256z" />
<glyph unicode="-" d="M256 768v256h1280v-256h-1280z" />
<glyph unicode="." d="M768 0v256h256v-256h-256z" />
<glyph unicode="/" d="M256 256v256h256v-256h-256zM512 512v256h256v-256h-256zM768 768v256h256v-256h-256zM1024 1024v256h256v-256h-256zM1280 1280v256h256v-256h-256z" />
<glyph unicode="0" d="M256 256v1280h256v-768h256v-256h-256v-256h-256zM512 0v256h768v-256h-768zM512 1536v256h768v-256h-768zM768 768v256h256v-256h-256zM1024 1024v256h256v256h256v-1280h-256v768h-256z" />
<glyph unicode="1" d="M512 0v256h256v1024h-256v256h256v256h256v-1536h256v-256h-768z" />
<glyph unicode="2" d="M256 0v512h256v-256h1024v-256h-1280zM256 1280v256h256v-256h-256zM512 512v256h256v-256h-256zM512 1536v256h768v-256h-768zM768 768v256h512v-256h-512zM1280 1024v512h256v-512h-256z" />
<glyph unicode="3" d="M256 256v256h256v-256h-256zM256 1536v256h1280v-512h-256v256h-1024zM512 0v256h768v-256h-768zM768 768v256h256v256h256v-512h-512zM1280 256v512h256v-512h-256z" />
<glyph unicode="4" d="M256 512v512h256v-256h512v512h-256v256h256v256h256v-1024h256v-256h-256v-512h-256v512h-768zM512 1024v256h256v-256h-256z" />
<glyph unicode="5" d="M256 256v256h256v-256h-256zM256 1024v768h1280v-256h-1024v-256h768v-256h-1024zM512 0v256h768v-256h-768zM1280 256v768h256v-768h-256z" />
<glyph unicode="6" d="M256 256v1024h256v-256h768v-256h-768v-512h-256zM512 0v256h768v-256h-768zM512 1280v256h256v-256h-256zM768 1536v256h768v-256h-768zM1280 256v512h256v-512h-256z" />
<glyph unicode="7" d="M256 1536v256h1280v-512h-256v256h-1024zM512 0v768h256v-768h-256zM768 768v256h256v-256h-256zM1024 1024v256h256v-256h-256z" />
<glyph unicode="8" d="M256 256v512h256v-512h-256zM256 1024v512h256v-512h-256zM512 0v256h768v-256h-768zM512 768v256h768v-256h-768zM512 1536v256h768v-256h-768zM1280 256v512h256v-512h-256zM1280 1024v512h256v-512h-256z" />
<glyph unicode="9" d="M256 0v256h768v-256h-768zM256 1024v512h256v-512h-256zM512 768v256h768v512h256v-1024h-256v256h-768zM512 1536v256h768v-256h-768zM1024 256v256h256v-256h-256z" />
<glyph unicode=":" d="M768 512v256h256v-256h-256zM768 1024v256h256v-256h-256z" />
<glyph unicode=";" d="M512 0v256h256v-256h-256zM768 256v512h256v-512h-256zM768 1024v256h256v-256h-256z" />
<glyph unicode="&#x3c;" d="M256 768v256h256v-256h-256zM512 512v256h256v-256h-256zM512 1024v256h256v-256h-256zM768 256v256h256v-256h-256zM768 1280v256h256v-256h-256zM1024 0v256h256v-256h-256zM1024 1536v256h256v-256h-256z" />
<glyph unicode="=" d="M256 512v256h1280v-256h-1280zM256 1024v256h1280v-256h-1280z" />
<glyph unicode="&#x3e;" d="M512 0v256h256v-256h-256zM512 1536v256h256v-256h-256zM768 256v256h256v-256h-256zM768 1280v256h256v-256h-256zM1024 512v256h256v-256h-256zM1024 1024v256h256v-256h-256zM1280 768v256h256v-256h-256z" />
<glyph unicode="?" d="M256 1280v256h256v-256h-256zM512 1536v256h768v-256h-768zM768 0v256h256v-256h-256zM768 512v512h256v-512h-256zM1024 1024v256h256v-256h-256zM1280 1280v256h256v-256h-256z" />
<glyph unicode="@" d="M256 256v1280h256v-1280h-256zM512 0v256h1024v-256h-1024zM512 1536v256h768v-256h-768zM768 512v768h256v-256h256v512h256v-768h-256v-256h-512z" />
<glyph unicode="A" d="M256 0v1280h256v-512h768v512h256v-1280h-256v512h-768v-512h-256zM512 1280v256h256v-256h-256zM768 1536v256h256v-256h-256zM1024 1280v256h256v-256h-256z" />
<glyph unicode="B" d="M256 0v1792h1024v-256h-768v-512h768v-256h-768v-512h768v-256h-1024zM1280 256v512h256v-512h-256zM1280 1024v512h256v-512h-256z" />
<glyph unicode="C" d="M256 256v1280h256v-1280h-256zM512 0v256h768v-256h-768zM512 1536v256h768v-256h-768zM1280 256v256h256v-256h-256zM1280 1280v256h256v-256h-256z" />
<glyph unicode="D" d="M256 0v1792h1024v-256h-768v-1280h768v-256h-1024zM1280 256v1280h256v-1280h-256z" />
<glyph unicode="E" d="M256 0v1792h1280v-256h-1024v-512h768v-256h-768v-512h1024v-256h-1280z" />
<glyph unicode="F" d="M256 0v1792h1280v-256h-1024v-512h768v-256h-768v-768h-256z" />
<glyph unicode="G" d="M256 256v1280h256v-1280h-256zM512 0v256h768v256h-256v256h512v-768h-1024zM512 1536v256h1024v-256h-1024z" />
<glyph unicode="H" d="M256 0v1792h256v-768h768v768h256v-1792h-256v768h-768v-768h-256z" />
<glyph unicode="I" d="M512 0v256h256v1280h-256v256h768v-256h-256v-1280h256v-256h-768z" />
<glyph unicode="J" d="M256 256v256h256v-256h-256zM512 0v256h768v-256h-768zM1280 256v1536h256v-1536h-256z" />
<glyph unicode="K" d="M256 0v1792h256v-768h256v-256h-256v-768h-256zM768 512v256h256v-256h-256zM768 1024v256h256v-256h-256zM1024 256v256h256v-256h-256zM1024 1280v256h256v-256h-256zM1280 0v256h256v-256h-256zM1280 1536v256h256v-256h-256z" />
<glyph unicode="L" d="M256 0v1792h256v-1536h1024v-256h-1280z" />
<glyph unicode="M" d="M256 0v1792h256v-256h256v-256h-256v-1280h-256zM768 768v512h256v-512h-256zM1024 1280v256h256v256h256v-1792h-256v1280h-256z" />
<glyph unicode="N" d="M256 0v1792h256v-512h256v-256h-256v-1024h-256zM768 768v256h256v-256h-256zM1024 512v256h256v1024h256v-1792h-256v512h-256z" />
<glyph unicode="O" d="M256 256v1280h256v-1280h-256zM512 0v256h768v-256h-768zM512 1536v256h768v-256h-768zM1280 256v1280h256v-1280h-256z" />
<glyph unicode="P" d="M256 0v1792h1024v-256h-768v-512h768v-256h-768v-768h-256zM1280 1024v512h256v-512h-256z" />
<glyph unicode="Q" d="M256 256v1280h256v-1280h-256zM512 0v256h512v-256h-512zM512 1536v256h768v-256h-768zM768 512v256h256v-256h-256zM1024 256v256h256v-256h-256zM1280 0v256h256v-256h-256zM1280 512v1024h256v-1024h-256z" />
<glyph unicode="R" d="M256 0v1792h1024v-256h-768v-512h768v-256h-256v-256h-256v256h-256v-768h-256zM1024 256v256h256v-256h-256zM1280 0v256h256v-256h-256zM1280 1024v512h256v-512h-256z" />
<glyph unicode="S" d="M256 256v256h256v-256h-256zM256 1024v512h256v-512h-256zM512 0v256h768v-256h-768zM512 768v256h768v-256h-768zM512 1536v256h768v-256h-768zM1280 256v512h256v-512h-256zM1280 1280v256h256v-256h-256z" />
<glyph unicode="T" d="M256 1536v256h1280v-256h-512v-1536h-256v1536h-512z" />
<glyph unicode="U" d="M256 256v1536h256v-1536h-256zM512 0v256h768v-256h-768zM1280 256v1536h256v-1536h-256z" />
<glyph unicode="V" d="M256 512v1280h256v-1280h-256zM512 256v256h256v-256h-256zM768 0v256h256v-256h-256zM1024 256v256h256v-256h-256zM1280 512v1280h256v-1280h-256z" />
<glyph unicode="W" d="M256 0v1792h256v-1280h256v-256h-256v-256h-256zM768 512v512h256v-512h-256zM1024 256v256h256v1280h256v-1792h-256v256h-256z" />
<glyph unicode="X" d="M256 0v512h256v-512h-256zM256 1280v512h256v-512h-256zM512 512v256h256v-256h-256zM512 1024v256h256v-256h-256zM768 768v256h256v-256h-256zM1024 512v256h256v-256h-256zM1024 1024v256h256v-256h-256zM1280 0v512h256v-512h-256zM1280 1280v512h256v-512h-256z" />
<glyph unicode="Y" d="M256 1280v512h256v-512h-256zM512 1024v256h256v-256h-256zM768 0v1024h256v-1024h-256zM1024 1024v256h256v-256h-256zM1280 1280v512h256v-512h-256z" />
<glyph unicode="Z" d="M256 0v512h256v-256h1024v-256h-1280zM256 1536v256h1280v-512h-256v256h-1024zM512 512v256h256v-256h-256zM768 768v256h256v-256h-256zM1024 1024v256h256v-256h-256z" />
<glyph unicode="[" d="M256 0v1792h1280v-256h-768v-1280h768v-256h-1280z" />
<glyph unicode="\" d="M256 1280v256h256v-256h-256zM512 1024v256h256v-256h-256zM768 768v256h256v-256h-256zM1024 512v256h256v-256h-256zM1280 256v256h256v-256h-256z" />
<glyph unicode="]" d="M256 0v256h768v1280h-768v256h1280v-1792h-1280z" />
<glyph unicode="^" d="M256 512v256h256v-256h-256zM512 768v256h256v-256h-256zM768 1024v256h256v-256h-256zM1024 768v256h256v-256h-256zM1280 512v256h256v-256h-256z" />
<glyph unicode="_" d="M0 0h1792v-256h-1792v256z" />
<glyph unicode="`" d="M512 1536v256h256v-256h-256zM768 1280v256h256v-256h-256zM1024 1024v256h256v-256h-256z" />
<glyph unicode="a" d="M256 256v256h256v-256h-256zM512 0v256h768v256h-768v256h768v256h256v-1024h-1024zM512 1024v256h768v-256h-768z" />
<glyph unicode="b" d="M256 0v1792h256v-512h768v-256h-768v-768h768v-256h-1024zM1280 256v768h256v-768h-256z" />
<glyph unicode="c" d="M256 256v768h256v-768h-256zM512 0v256h1024v-256h-1024zM512 1024v256h1024v-256h-1024z" />
<glyph unicode="d" d="M256 256v768h256v-768h-256zM512 0v256h768v768h-768v256h768v512h256v-1792h-1024z" />
<glyph unicode="e" d="M256 256v768h256v-256h768v256h256v-512h-1024v-256h-256zM512 0v256h1024v-256h-1024zM512 1024v256h768v-256h-768z" />
<glyph unicode="f" d="M256 768v256h256v512h256v-512h512v-256h-512v-768h-256v768h-256zM768 1536v256h512v-256h-512zM1280 1280v256h256v-256h-256z" />
<glyph unicode="g" d="M256 512v512h256v-512h-256zM512 0h768v-256h-768v256zM512 256v256h768v512h256v-1024h-256v256h-768zM512 1024v256h768v-256h-768z" />
<glyph unicode="h" d="M256 0v1792h256v-512h768v-256h-768v-1024h-256zM1280 0v1024h256v-1024h-256z" />
<glyph unicode="i" d="M512 0v256h256v768h-256v256h512v-1024h256v-256h-768zM768 1536v256h256v-256h-256z" />
<glyph unicode="j" d="M256 0v256h256v-256h-256zM512 0h512v-256h-512v256zM768 1024v256h512v-1280h-256v1024h-256zM1024 1536v256h256v-256h-256z" />
<glyph unicode="k" d="M256 0v1792h256v-1024h512v-256h-512v-512h-256zM1024 256v256h256v-256h-256zM1024 768v256h256v-256h-256zM1280 0v256h256v-256h-256zM1280 1024v256h256v-256h-256z" />
<glyph unicode="l" d="M512 0v256h256v1280h-256v256h512v-1536h256v-256h-768z" />
<glyph unicode="m" d="M256 0v1280h512v-256h-256v-1024h-256zM768 256v768h256v-768h-256zM1024 1024v256h512v-1280h-256v1024h-256z" />
<glyph unicode="n" d="M256 0v1280h1024v-256h-768v-1024h-256zM1280 0v1024h256v-1024h-256z" />
<glyph unicode="o" d="M256 256v768h256v-768h-256zM512 0v256h768v-256h-768zM512 1024v256h768v-256h-768zM1280 256v768h256v-768h-256z" />
<glyph unicode="p" d="M256 -256v1536h1024v-256h-768v-512h768v-256h-768v-512h-256zM1280 512v512h256v-512h-256z" />
<glyph unicode="q" d="M256 512v512h256v-512h-256zM512 256v256h768v512h-768v256h1024v-1536h-256v512h-768z" />
<glyph unicode="r" d="M256 0v1280h256v-256h256v-256h-256v-768h-256zM768 1024v256h768v-256h-768z" />
<glyph unicode="s" d="M256 0v256h1024v-256h-1024zM256 768v256h256v-256h-256zM512 512v256h768v-256h-768zM512 1024v256h1024v-256h-1024zM1280 256v256h256v-256h-256z" />
<glyph unicode="t" d="M256 1024v256h256v512h256v-512h512v-256h-512v-768h-256v768h-256zM768 0v256h512v-256h-512zM1280 256v256h256v-256h-256z" />
<glyph unicode="u" d="M256 256v1024h256v-1024h-256zM512 0v256h512v-256h-512zM1024 256v256h256v768h256v-1280h-256v256h-256z" />
<glyph unicode="v" d="M256 512v768h256v-768h-256zM512 256v256h256v-256h-256zM768 0v256h256v-256h-256zM1024 256v256h256v-256h-256zM1280 512v768h256v-768h-256z" />
<glyph unicode="w" d="M256 0v1280h256v-1024h256v-256h-512zM768 256v512h256v-512h-256zM1024 0v256h256v1024h256v-1280h-512z" />
<glyph unicode="x" d="M256 0v256h256v-256h-256zM256 1024v256h256v-256h-256zM512 256v256h256v-256h-256zM512 768v256h256v-256h-256zM768 512v256h256v-256h-256zM1024 256v256h256v-256h-256zM1024 768v256h256v-256h-256zM1280 0v256h256v-256h-256zM1280 1024v256h256v-256h-256z" />
<glyph unicode="y" d="M256 512v768h256v-768h-256zM512 0h768v-256h-768v256zM512 256v256h768v768h256v-1280h-256v256h-768z" />
<glyph unicode="z" d="M256 0v256h256v256h256v-256h768v-256h-1280zM256 1024v256h1280v-256h-256v-256h-256v256h-768zM768 512v256h256v-256h-256z" />
<glyph unicode="{" d="M256 768v256h256v512h256v256h768v-256h-512v-512h-256v-256h256v-512h512v-256h-768v256h-256v512h-256z" />
<glyph unicode="|" d="M768 -256v2048h256v-2048h-256z" />
<glyph unicode="}" d="M256 0v256h512v512h256v256h-256v512h-512v256h768v-256h256v-512h256v-256h-256v-512h-256v-256h-768z" />
<glyph unicode="~" d="M256 1280v256h256v-256h-256zM512 1536v256h512v-256h256v-256h-512v256h-256zM1280 1536v256h256v-256h-256z" />
<glyph d="M256 256v256h256v-256h-256zM256 768v256h256v-256h-256zM256 1280v256h256v-256h-256zM512 512v256h256v-256h-256zM512 1024v256h256v-256h-256zM768 256v256h256v-256h-256zM768 768v256h256v-256h-256zM768 1280v256h256v-256h-256zM1024 512v256h256v-256h-256z M1024 1024v256h256v-256h-256zM1280 256v256h256v-256h-256zM1280 768v256h256v-256h-256zM1280 1280v256h256v-256h-256z" />
<glyph d="M0 256v768h256v256h512v-256h256v256h512v-256h256v-256h-256v-512h256v-256h-256v-256h-512v256h-256v-256h-512v512h-256zM768 1280v256h256v-256h-256zM1024 1536v256h256v-256h-256z" />
<glyph d="M0 256v768h256v-768h-256zM256 -256v512h256v-256h256v-256h-512zM256 1024v256h512v-256h-512zM768 0v256h256v-256h-256zM768 1280v256h256v-256h-256zM1024 0h512v-256h-512v256zM1024 1024v256h512v-256h-512zM1024 1536v256h256v-256h-256zM1280 256v512h256v-512 h-256zM1536 0v256h256v-256h-256zM1536 768v256h256v-256h-256z" />
<glyph d="M256 -256v1536h256v-256h256v-256h256v-256h256v-256h256v-256h-512v256h-256v-256h-256v-256h-256zM1536 0h256v-256h-256v256z" />
<glyph d="M0 0h256v256h256v-256h256v256h256v-256h256v256h256v-256h256v-256h-1792v256zM0 1536v256h1792v-256h-256v-256h-256v256h-768v-256h-256v256h-256zM512 256v256h256v-256h-256zM512 1024v256h256v-256h-256zM768 512v512h256v-512h-256zM1024 256v256h256v-256h-256z M1024 1024v256h256v-256h-256z" />
<glyph d="M0 768v256h256v-256h-256zM256 512v256h256v-256h-256zM512 0v512h256v-512h-256zM768 512v256h256v-256h-256zM1024 768v256h256v-256h-256zM1280 1024v256h256v-256h-256zM1536 1280v256h256v-256h-256z" />
<glyph unicode="&#x85;" d="M0 -256v1024h256v-256h256v-512h256v512h256v256h256v256h256v256h256v-1536h-1792zM0 1024v768h1792v-256h-256v-256h-256v-256h-256v-256h-256v-256h-256v512h-512z" />
<glyph d="M0 -256v512h256v-256h256v-256h-512zM0 512v1280h1536v-1280h-768v512h-256v-256h-256v-256h-256zM768 -256v512h1024v-512h-1024z" />
<glyph d="M0 0h1792v-256h-1792v256zM0 512v256h1792v-256h-1792zM0 1024v256h1792v-256h-1792zM0 1536v256h1792v-256h-1792z" />
<glyph d="M0 768v256h256v256h256v-256h1280v-256h-1280v-256h-256v256h-256zM512 256v256h256v-256h-256zM512 1280v256h256v-256h-256zM768 0v256h256v-256h-256zM768 1536v256h256v-256h-256z" />
<glyph d="M256 0h256v-256h-256v256zM768 0h256v-256h-256v256zM1280 0h256v-256h-256v256z" />
<glyph d="M0 512v256h256v-256h-256zM256 256v256h256v-256h-256zM512 0v256h256v1536h256v-1536h256v-256h-256v-256h-256v256h-256zM1280 256v256h256v-256h-256zM1536 512v256h256v-256h-256z" />
<glyph d="M0 768v256h256v-256h-256zM256 1024v256h256v-256h-256zM512 1280v256h256v256h256v-256h256v-256h-256v-1536h-256v1536h-256zM1280 1024v256h256v-256h-256zM1536 768v256h256v-256h-256z" />
<glyph d="M0 1536v256h1792v-256h-1792z" />
<glyph d="M0 256v256h256v256h256v256h256v-512h768v1280h256v-1536h-1024v-512h-256v256h-256v256h-256z" />
<glyph d="M0 -256v2048h1536v-2048h-1536z" />
<glyph d="M0 0h1024v-256h-1024v256zM0 1536v256h512v-256h-512zM256 768v256h256v256h256v256h256v256h256v-768h512v-256h-512v-768h-256v256h-256v256h-256v256h-256zM1280 0h512v-256h-512v256z" />
<glyph d="M0 0h512v-256h-512v256zM0 768v256h512v768h256v-256h256v-256h256v-256h256v-256h-256v-256h-256v-256h-256v-256h-256v768h-512zM768 0h1024v-256h-1024v256zM1280 1536v256h512v-256h-512z" />
<glyph d="M0 768v256h768v512h256v-512h768v-256h-256v-256h-256v-256h-256v-256h-256v256h-256v256h-256v256h-256zM1536 256h256v-512h-256v512zM1536 1280v512h256v-512h-256z" />
<glyph d="M0 512v256h256v256h256v256h256v256h256v-256h256v-256h256v-256h256v-256h-768v-512h-256v512h-768zM1536 256h256v-512h-256v512zM1536 1280v512h256v-512h-256z" />
<glyph d="M0 768v256h1792v-256h-1792z" />
<glyph d="M0 -256v2048h256v-1792h1536v-256h-1792z" />
<glyph d="M0 768v256h1280v256h256v-256h256v-256h-256v-256h-256v256h-1280zM768 0v256h256v-256h-256zM768 1536v256h256v-256h-256zM1024 256v256h256v-256h-256zM1024 1280v256h256v-256h-256z" />
<glyph d="M0 0h256v-256h-256v256zM0 256v256h256v-256h-256zM0 768v256h256v-256h-256zM0 1280v256h256v-256h-256zM256 0v256h256v-256h-256zM256 512v256h256v-256h-256zM256 1024v256h256v-256h-256zM256 1536v256h256v-256h-256zM512 0h256v-256h-256v256zM512 256v256h256 v-256h-256zM512 768v256h256v-256h-256zM512 1280v256h256v-256h-256zM768 0v256h256v-256h-256zM768 512v256h256v-256h-256zM768 1024v256h256v-256h-256zM768 1536v256h256v-256h-256zM1024 0h256v-256h-256v256zM1024 256v256h256v-256h-256zM1024 768v256h256v-256 h-256zM1024 1280v256h256v-256h-256zM1280 0v256h256v-256h-256zM1280 512v256h256v-256h-256zM1280 1024v256h256v-256h-256zM1280 1536v256h256v-256h-256zM1536 0h256v-256h-256v256zM1536 256v256h256v-256h-256zM1536 768v256h256v-256h-256zM1536 1280v256h256v-256 h-256z" />
<glyph d="M0 0v256h256v-256h-256zM0 512v256h256v-256h-256zM0 1024v256h256v-256h-256zM0 1536v256h256v-256h-256zM256 0h256v-256h-256v256zM256 256v256h256v-256h-256zM256 768v256h256v-256h-256zM256 1280v256h256v-256h-256zM512 0v256h256v-256h-256zM512 512v256h256 v-256h-256zM512 1024v256h256v-256h-256zM512 1536v256h256v-256h-256zM768 0h256v-256h-256v256zM768 256v256h256v-256h-256zM768 768v256h256v-256h-256zM768 1280v256h256v-256h-256zM1024 0v256h256v-256h-256zM1024 512v256h256v-256h-256zM1024 1024v256h256v-256 h-256zM1024 1536v256h256v-256h-256zM1280 0h256v-256h-256v256zM1280 256v256h256v-256h-256zM1280 768v256h256v-256h-256zM1280 1280v256h256v-256h-256zM1536 0v256h256v-256h-256zM1536 512v256h256v-256h-256zM1536 1024v256h256v-256h-256zM1536 1536v256h256v-256 h-256z" />
<glyph d="M0 0v1280h256v-1024h1536v-256h-1792zM256 1280v256h1280v-256h-1280zM1536 1024v256h256v-256h-256z" />
<glyph d="M0 0v256h1536v768h256v-1024h-1792zM0 1024v256h1536v-256h-1536z" />
<glyph d="M1536 -256v2048h256v-2048h-256z" />
<glyph d="M0 768v256h256v256h256v256h256v256h256v-256h256v-256h256v-256h256v-256h-256v-256h-256v-256h-256v-256h-256v256h-256v256h-256v256h-256z" />
<glyph d="M0 0h1792v-256h-1792v256zM0 1536v256h1792v-256h-1792z" />
<glyph d="M0 512v256h768v-768h-256v512h-512zM0 1024v256h512v512h256v-768h-768zM1024 0v768h768v-256h-512v-512h-256zM1024 1024v768h256v-512h512v-256h-768z" />
<glyph d="M0 0h1536v1536h-1536v256h1792v-2048h-1792v256zM512 512v512h512v-512h-512z" />
<glyph d="M0 -256v2048h256v-2048h-256z" />
<glyph unicode="&#xa0;" />
<glyph unicode="&#xa1;" d="M768 0v1280h256v-1280h-256zM768 1536v256h256v-256h-256z" />
<glyph unicode="&#xa2;" d="M256 512v768h256v-768h-256zM512 256v256h256v768h-256v256h256v256h256v-256h512v-256h-512v-768h512v-256h-512v-256h-256v256h-256z" />
<glyph unicode="&#xa3;" d="M256 0v256h256v-256h-256zM256 768v256h256v512h256v-512h256v-256h-256v-512h-256v512h-256zM768 0v256h1024v-256h-1024zM768 1536v256h768v-256h-768zM1536 1280v256h256v-256h-256z" />
<glyph unicode="&#xa4;" d="M256 256v256h256v-256h-256zM256 1280v256h256v-256h-256zM512 512v768h768v-768h-768zM768 768h256v256h-256v-256zM1280 256v256h256v-256h-256zM1280 1280v256h256v-256h-256z" />
<glyph unicode="&#xa5;" d="M256 512v256h512v256h256v-256h512v-256h-512v-512h-256v512h-512zM256 1280v512h256v-512h-256zM512 1024v256h256v-256h-256zM1024 1024v256h256v-256h-256zM1280 1280v512h256v-512h-256z" />
<glyph unicode="&#xa6;" d="M768 -256v768h256v-768h-256zM768 1024v768h256v-768h-256z" />
<glyph unicode="&#xa7;" d="M256 0v256h1024v-256h-1024zM256 768v256h256v-256h-256zM256 1280v256h256v-256h-256zM512 512v256h768v-256h-768zM512 1024v256h768v-256h-768zM512 1536v256h1024v-256h-1024zM1280 256v256h256v-256h-256zM1280 768v256h256v-256h-256z" />
<glyph unicode="&#xa8;" d="M256 1536v256h256v-256h-256zM1280 1536v256h256v-256h-256z" />
<glyph unicode="&#xa9;" d="M0 512v768h256v-768h-256zM256 256v256h256v-256h-256zM256 1280v256h256v-256h-256zM512 0v256h768v-256h-768zM512 768v256h256v-256h-256zM512 1536v256h768v-256h-768zM768 512v256h512v-256h-512zM768 1024v256h512v-256h-512zM1280 256v256h256v-256h-256z M1280 1280v256h256v-256h-256zM1536 512v768h256v-768h-256z" />
<glyph unicode="&#xaa;" d="M512 256v256h768v-256h-768zM512 1024v256h256v-256h-256zM512 1536v256h512v-256h256v-768h-512v256h256v256h-256v256h-256z" />
<glyph unicode="&#xab;" d="M0 768v256h256v-256h-256zM256 512v256h256v-256h-256zM256 1024v256h256v-256h-256zM512 256v256h256v-256h-256zM512 1280v256h256v-256h-256zM768 0v256h256v-256h-256zM768 768v256h256v-256h-256zM768 1536v256h256v-256h-256zM1024 512v256h256v-256h-256z M1024 1024v256h256v-256h-256zM1280 256v256h256v-256h-256zM1280 1280v256h256v-256h-256zM1536 0v256h256v-256h-256zM1536 1536v256h256v-256h-256z" />
<glyph unicode="&#xac;" d="M256 1024v256h1280v-768h-256v512h-1024z" />
<glyph unicode="&#xad;" d="M256 768v256h1280v-256h-1280z" />
<glyph unicode="&#xae;" d="M0 512v768h256v-768h-256zM256 256v256h256v-256h-256zM256 1280v256h256v-256h-256zM512 0v256h768v-256h-768zM512 512v768h768v-256h-256v-256h-256v-256h-256zM512 1536v256h768v-256h-768zM1024 512v256h256v-256h-256zM1280 256v256h256v-256h-256zM1280 1280v256 h256v-256h-256zM1536 512v768h256v-768h-256z" />
<glyph unicode="&#xaf;" d="M256 1536v256h1280v-256h-1280z" />
<glyph unicode="&#xb0;" d="M512 1280v256h256v-256h-256zM768 1024v256h256v-256h-256zM768 1536v256h256v-256h-256zM1024 1280v256h256v-256h-256z" />
<glyph unicode="&#xb1;" d="M256 0v256h1280v-256h-1280zM256 1024v256h512v512h256v-512h512v-256h-512v-512h-256v512h-512z" />
<glyph unicode="&#xb2;" d="M512 768v256h256v256h256v-256h256v-256h-768zM512 1536v256h512v-256h-512zM1024 1280v256h256v-256h-256z" />
<glyph unicode="&#xb3;" d="M512 768v256h512v-256h-512zM512 1536v256h768v-256h-256v-256h-256v256h-256zM1024 1024v256h256v-256h-256z" />
<glyph unicode="&#xb4;" d="M512 1024v256h256v-256h-256zM768 1280v256h256v-256h-256zM1024 1536v256h256v-256h-256z" />
<glyph unicode="&#xb5;" d="M256 -256v1536h256v-768h256v-256h-256v-512h-256zM768 0v256h256v-256h-256zM1024 256v256h256v768h256v-1280h-256v256h-256z" />
<glyph unicode="&#xb6;" d="M256 1024v512h256v-512h-256zM512 768v256h256v512h-256v256h1024v-1792h-256v768h-256v-768h-256v768h-256zM1024 1024h256v512h-256v-512z" />
<glyph unicode="&#xb7;" d="M768 768v256h256v-256h-256z" />
<glyph unicode="&#xb8;" d="M768 0h256v-256h-256v256zM1024 0v256h256v-256h-256z" />
<glyph unicode="&#xb9;" d="M512 768v256h256v256h-256v256h256v256h256v-768h256v-256h-768z" />
<glyph unicode="&#xba;" d="M512 256v256h768v-256h-768zM512 1024v512h256v-512h-256zM768 768v256h256v-256h-256zM768 1536v256h256v-256h-256zM1024 1024v512h256v-512h-256z" />
<glyph unicode="&#xbb;" d="M0 0v256h256v-256h-256zM0 1536v256h256v-256h-256zM256 256v256h256v-256h-256zM256 1280v256h256v-256h-256zM512 512v256h256v-256h-256zM512 1024v256h256v-256h-256zM768 0v256h256v-256h-256zM768 768v256h256v-256h-256zM768 1536v256h256v-256h-256zM1024 256 v256h256v-256h-256zM1024 1280v256h256v-256h-256zM1280 512v256h256v-256h-256zM1280 1024v256h256v-256h-256zM1536 768v256h256v-256h-256z" />
<glyph unicode="&#xbc;" d="M256 256v256h256v-256h-256zM256 1024v768h256v-768h-256zM512 512v256h256v-256h-256zM768 768v256h256v-256h-256zM1024 256v512h256v-256h256v-512h-256v256h-256zM1024 1024v256h256v-256h-256zM1280 1280v256h256v-256h-256z" />
<glyph unicode="&#xbd;" d="M256 256v256h256v-256h-256zM256 1024v768h256v-768h-256zM512 512v256h256v-256h-256zM768 768v256h256v-256h-256zM1024 0v768h512v-256h-256v-256h256v-256h-512zM1024 1024v256h256v-256h-256zM1280 1280v256h256v-256h-256z" />
<glyph unicode="&#xbe;" d="M256 256v256h256v-256h-256zM256 1024v256h256v256h-256v256h512v-768h-512zM512 512v256h256v-256h-256zM768 768v256h256v-256h-256zM1024 256v512h256v-256h256v-512h-256v256h-256zM1024 1024v256h256v-256h-256zM1280 1280v256h256v-256h-256z" />
<glyph unicode="&#xbf;" d="M256 256v256h256v-256h-256zM512 0v256h768v-256h-768zM512 512v256h256v-256h-256zM768 768v512h256v-512h-256zM768 1536v256h256v-256h-256zM1280 256v256h256v-256h-256z" />
<glyph unicode="&#xc0;" d="M256 0v768h256v-256h768v256h256v-768h-256v256h-768v-256h-256zM512 768v256h256v-256h-256zM768 1024v256h256v-256h-256zM768 1536v256h256v-256h-256zM1024 768v256h256v-256h-256zM1024 1280v256h256v-256h-256z" />
<glyph unicode="&#xc1;" d="M256 0v768h256v-256h768v256h256v-768h-256v256h-768v-256h-256zM512 768v256h256v-256h-256zM512 1280v256h256v-256h-256zM768 1024v256h256v-256h-256zM768 1536v256h256v-256h-256zM1024 768v256h256v-256h-256z" />
<glyph unicode="&#xc2;" d="M256 0v768h256v-256h768v256h256v-768h-256v256h-768v-256h-256zM512 768v256h256v-256h-256zM512 1280v256h256v-256h-256zM768 1024v256h256v-256h-256zM768 1536v256h256v-256h-256zM1024 768v256h256v-256h-256zM1024 1280v256h256v-256h-256z" />
<glyph unicode="&#xc3;" d="M256 0v768h256v-256h768v256h256v-768h-256v256h-768v-256h-256zM256 1280v256h256v-256h-256zM512 768v256h256v-256h-256zM512 1536v256h512v-256h256v-256h-256v-256h-256v512h-256zM1024 768v256h256v-256h-256zM1280 1536v256h256v-256h-256z" />
<glyph unicode="&#xc4;" d="M256 0v768h256v-256h768v256h256v-768h-256v256h-768v-256h-256zM256 1536v256h256v-256h-256zM512 768v256h256v-256h-256zM768 1024v256h256v-256h-256zM1024 768v256h256v-256h-256zM1280 1536v256h256v-256h-256z" />
<glyph unicode="&#xc5;" d="M256 0v1024h256v-256h768v256h256v-1024h-256v512h-768v-512h-256zM256 1280v256h256v-256h-256zM512 1024v256h768v-256h-768zM512 1536v256h768v-256h-768zM1280 1280v256h256v-256h-256z" />
<glyph unicode="&#xc6;" d="M256 0v1536h256v-512h256v512h-256v256h1024v-256h-512v-512h512v-256h-512v-512h512v-256h-768v768h-256v-768h-256z" />
<glyph unicode="&#xc7;" d="M256 512v1024h256v-1024h-256zM512 256v256h768v-512h-256v256h-512zM512 1536v256h768v-256h-768zM768 0h256v-256h-256v256zM1280 512v256h256v-256h-256zM1280 1280v256h256v-256h-256z" />
<glyph unicode="&#xc8;" d="M256 0v1280h1024v256h256v-512h-1024v-256h768v-256h-768v-256h1024v-256h-1280zM1024 1536v256h256v-256h-256z" />
<glyph unicode="&#xc9;" d="M256 0v1280h768v256h256v-256h256v-256h-1024v-256h768v-256h-768v-256h1024v-256h-1280zM1280 1536v256h256v-256h-256z" />
<glyph unicode="&#xca;" d="M256 0v1280h512v256h256v-256h256v256h256v-512h-1024v-256h768v-256h-768v-256h1024v-256h-1280zM1024 1536v256h256v-256h-256z" />
<glyph unicode="&#xcb;" d="M256 0v1280h1280v-256h-1024v-256h768v-256h-768v-256h1024v-256h-1280zM256 1536v256h256v-256h-256zM1280 1536v256h256v-256h-256z" />
<glyph unicode="&#xcc;" d="M512 0v256h256v768h-256v256h256v256h256v-256h256v-256h-256v-768h256v-256h-768zM512 1536v256h256v-256h-256z" />
<glyph unicode="&#xcd;" d="M512 0v256h256v768h-256v256h256v256h256v-256h256v-256h-256v-768h256v-256h-768zM1024 1536v256h256v-256h-256z" />
<glyph unicode="&#xce;" d="M512 0v256h256v768h-256v512h256v-256h256v256h256v-512h-256v-768h256v-256h-768zM768 1536v256h256v-256h-256z" />
<glyph unicode="&#xcf;" d="M256 1536v256h256v-256h-256zM512 0v256h256v768h-256v256h768v-256h-256v-768h256v-256h-768zM1280 1536v256h256v-256h-256z" />
<glyph unicode="&#xd0;" d="M256 768v256h256v768h768v-256h-512v-512h256v-256h-256v-512h512v-256h-768v768h-256zM1280 256v1280h256v-1280h-256z" />
<glyph unicode="&#xd1;" d="M256 0v1024h512v-256h-256v-768h-256zM256 1280v256h256v-256h-256zM512 1536v256h512v-256h256v-256h-512v256h-256zM768 512v256h256v-256h-256zM1024 256v256h256v512h256v-1024h-256v256h-256zM1280 1536v256h256v-256h-256z" />
<glyph unicode="&#xd2;" d="M256 256v768h256v-768h-256zM512 0v256h768v-256h-768zM512 1024v256h512v256h256v-512h-768zM768 1536v256h256v-256h-256zM1280 256v768h256v-768h-256z" />
<glyph unicode="&#xd3;" d="M256 256v768h256v-768h-256zM512 0v256h768v-256h-768zM512 1024v256h512v256h256v-512h-768zM1280 256v768h256v-768h-256zM1280 1536v256h256v-256h-256z" />
<glyph unicode="&#xd4;" d="M256 256v768h256v-768h-256zM512 0v256h768v-256h-768zM512 1024v256h256v256h256v-256h256v-256h-768zM1024 1536v256h256v-256h-256zM1280 256v768h256v-768h-256zM1280 1280v256h256v-256h-256z" />
<glyph unicode="&#xd5;" d="M256 256v768h256v-768h-256zM256 1280v256h256v-256h-256zM512 0v256h768v-256h-768zM512 1024v256h256v256h-256v256h512v-256h256v-512h-768zM1280 256v768h256v-768h-256zM1280 1536v256h256v-256h-256z" />
<glyph unicode="&#xd6;" d="M256 256v1024h256v-1024h-256zM256 1536v256h256v-256h-256zM512 0v256h768v-256h-768zM512 1280v256h768v-256h-768zM1280 256v1024h256v-1024h-256zM1280 1536v256h256v-256h-256z" />
<glyph unicode="&#xd7;" d="M256 256v256h256v-256h-256zM256 1280v256h256v-256h-256zM512 512v256h256v-256h-256zM512 1024v256h256v-256h-256zM768 768v256h256v-256h-256zM1024 512v256h256v-256h-256zM1024 1024v256h256v-256h-256zM1280 256v256h256v-256h-256zM1280 1280v256h256v-256h-256z " />
<glyph unicode="&#xd8;" d="M256 0h256v-256h-256v256zM256 256v1024h256v-768h256v-256h512v-256h-768v256h-256zM512 1280v256h768v-256h256v-1024h-256v768h-256v256h-512zM768 512v512h256v-512h-256zM1280 1536v256h256v-256h-256z" />
<glyph unicode="&#xd9;" d="M256 256v1024h256v-1024h-256zM512 0v256h768v-256h-768zM512 1536v256h256v-256h-256zM768 1280v256h256v-256h-256zM1280 256v1024h256v-1024h-256z" />
<glyph unicode="&#xda;" d="M256 256v1024h256v-1024h-256zM512 0v256h768v-256h-768zM768 1280v256h256v-256h-256zM1024 1536v256h256v-256h-256zM1280 256v1024h256v-1024h-256z" />
<glyph unicode="&#xdb;" d="M256 256v1024h256v-1024h-256zM512 0v256h768v-256h-768zM512 1280v256h256v-256h-256zM768 1536v256h256v-256h-256zM1024 1280v256h256v-256h-256zM1280 256v1024h256v-1024h-256z" />
<glyph unicode="&#xdc;" d="M256 256v1024h256v-1024h-256zM256 1536v256h256v-256h-256zM512 0v256h768v-256h-768zM1280 256v1024h256v-1024h-256zM1280 1536v256h256v-256h-256z" />
<glyph unicode="&#xdd;" d="M256 768v512h256v-512h-256zM512 512v256h256v-256h-256zM768 0v512h256v-512h-256zM768 1280v256h256v-256h-256zM1024 512v256h256v-256h-256zM1024 1536v256h256v-256h-256zM1280 768v512h256v-512h-256z" />
<glyph unicode="&#xde;" d="M256 0v1792h256v-512h768v-256h-768v-256h768v-256h-768v-512h-256zM1280 768v256h256v-256h-256z" />
<glyph unicode="&#xdf;" d="M256 -256v2048h1024v-256h-768v-512h768v-256h-768v-1024h-256zM768 0v256h512v-256h-512zM1280 256v512h256v-512h-256zM1280 1024v512h256v-512h-256z" />
<glyph unicode="&#xe0;" d="M256 256v256h256v-256h-256zM512 0v256h768v256h-768v256h768v256h256v-1024h-1024zM512 1024v256h768v-256h-768zM1024 1536v256h256v-256h-256zM1280 1280v256h256v-256h-256z" />
<glyph unicode="&#xe1;" d="M256 256v256h256v-256h-256zM512 0v256h768v256h-768v256h768v256h256v-1024h-1024zM512 1024v256h512v256h256v-512h-768zM1280 1536v256h256v-256h-256z" />
<glyph unicode="&#xe2;" d="M256 256v256h256v-256h-256zM512 0v256h768v256h-768v256h768v256h256v-1024h-1024zM512 1024v256h256v256h256v-256h256v-256h-768zM1024 1536v256h256v-256h-256zM1280 1280v256h256v-256h-256z" />
<glyph unicode="&#xe3;" d="M256 256v256h256v-256h-256zM256 1280v256h256v-256h-256zM512 0v256h768v256h-768v256h768v256h256v-1024h-1024zM512 1024v256h256v256h-256v256h512v-256h256v-512h-768zM1280 1536v256h256v-256h-256z" />
<glyph unicode="&#xe4;" d="M256 256v256h256v-256h-256zM256 1280v256h256v-256h-256zM512 0v256h768v256h-768v256h768v256h256v-1024h-1024zM512 1024v256h768v-256h-768zM1280 1280v256h256v-256h-256z" />
<glyph unicode="&#xe5;" d="M256 256v256h256v-256h-256zM512 0v256h768v256h-768v256h768v256h256v-1024h-1024zM512 1024v512h256v-256h256v256h256v-512h-768zM768 1536v256h256v-256h-256z" />
<glyph unicode="&#xe6;" d="M256 256v256h256v-256h-256zM256 1024v256h512v-256h-512zM512 0v256h256v256h-256v256h256v256h256v-256h256v256h256v-512h-512v-256h512v-256h-1024zM1024 1024v256h256v-256h-256z" />
<glyph unicode="&#xe7;" d="M256 512v512h256v-512h-256zM512 256v256h1024v-256h-256v-256h-256v256h-512zM512 1024v256h1024v-256h-1024zM768 0h256v-256h-256v256z" />
<glyph unicode="&#xe8;" d="M256 256v768h256v-256h768v256h256v-512h-1024v-256h-256zM512 0v256h1024v-256h-1024zM512 1024v256h768v-256h-768zM1024 1536v256h256v-256h-256zM1280 1280v256h256v-256h-256z" />
<glyph unicode="&#xe9;" d="M256 256v768h256v-256h768v256h256v-512h-1024v-256h-256zM512 0v256h1024v-256h-1024zM512 1024v256h512v256h256v-512h-768zM1280 1536v256h256v-256h-256z" />
<glyph unicode="&#xea;" d="M256 256v768h256v-256h768v256h256v-512h-1024v-256h-256zM512 0v256h1024v-256h-1024zM512 1024v256h256v256h256v-256h256v-256h-768zM1024 1536v256h256v-256h-256zM1280 1280v256h256v-256h-256z" />
<glyph unicode="&#xeb;" d="M256 256v768h256v-256h768v256h256v-512h-1024v-256h-256zM256 1280v256h256v-256h-256zM512 0v256h1024v-256h-1024zM512 1024v256h768v-256h-768zM1280 1280v256h256v-256h-256z" />
<glyph unicode="&#xec;" d="M512 0v256h256v768h256v-768h256v-256h-768zM512 1536v256h256v-256h-256zM768 1280v256h256v-256h-256z" />
<glyph unicode="&#xed;" d="M512 0v256h256v768h256v-768h256v-256h-768zM768 1280v256h256v-256h-256zM1024 1536v256h256v-256h-256z" />
<glyph unicode="&#xee;" d="M512 0v256h256v768h256v-768h256v-256h-768zM512 1280v256h256v-256h-256zM768 1536v256h256v-256h-256zM1024 1280v256h256v-256h-256z" />
<glyph unicode="&#xef;" d="M256 1280v256h256v-256h-256zM512 0v256h256v768h256v-768h256v-256h-768zM1280 1280v256h256v-256h-256z" />
<glyph unicode="&#xf0;" d="M256 256v512h256v-512h-256zM512 0v256h768v-256h-768zM512 768v512h256v-256h256v256h256v-512h-768zM512 1536v256h256v-256h-256zM768 1280v256h256v-256h-256zM1024 1536v256h256v-256h-256zM1280 256v512h256v-512h-256z" />
<glyph unicode="&#xf1;" d="M256 0v1024h1024v-256h-768v-768h-256zM256 1280v256h256v-256h-256zM512 1536v256h512v-256h256v-256h-512v256h-256zM1280 0v768h256v-768h-256zM1280 1536v256h256v-256h-256z" />
<glyph unicode="&#xf2;" d="M256 256v512h256v-512h-256zM512 0v256h768v-256h-768zM512 768v256h512v256h256v-512h-768zM768 1280v256h256v-256h-256zM1280 256v512h256v-512h-256z" />
<glyph unicode="&#xf3;" d="M256 256v512h256v-512h-256zM512 0v256h768v-256h-768zM512 768v256h512v256h256v-512h-768zM1280 256v512h256v-512h-256zM1280 1280v256h256v-256h-256z" />
<glyph unicode="&#xf4;" d="M256 256v512h256v-512h-256zM512 0v256h768v-256h-768zM512 768v256h256v256h256v-256h256v-256h-768zM1024 1280v256h256v-256h-256zM1280 256v512h256v-512h-256zM1280 1024v256h256v-256h-256z" />
<glyph unicode="&#xf5;" d="M256 256v512h256v-512h-256zM256 1280v256h256v-256h-256zM512 0v256h768v-256h-768zM512 768v256h768v-256h-768zM512 1536v256h512v-256h256v-256h-512v256h-256zM1280 256v512h256v-512h-256zM1280 1536v256h256v-256h-256z" />
<glyph unicode="&#xf6;" d="M256 256v768h256v-768h-256zM256 1280v256h256v-256h-256zM512 0v256h768v-256h-768zM512 1024v256h768v-256h-768zM1280 256v768h256v-768h-256zM1280 1280v256h256v-256h-256z" />
<glyph unicode="&#xf7;" d="M256 768v256h1280v-256h-1280zM768 256v256h256v-256h-256zM768 1280v256h256v-256h-256z" />
<glyph unicode="&#xf8;" d="M256 0h256v-256h-256v256zM256 256v768h256v-512h256v-256h512v-256h-768v256h-256zM512 1024v256h768v-256h256v-768h-256v512h-256v256h-512zM768 512v256h256v-256h-256zM1280 1280v256h256v-256h-256z" />
<glyph unicode="&#xf9;" d="M256 256v1024h256v-1024h-256zM512 0v256h512v-256h-512zM512 1536v256h256v-256h-256zM768 1280v256h256v-256h-256zM1024 256v256h256v768h256v-1280h-256v256h-256z" />
<glyph unicode="&#xfa;" d="M256 256v1024h256v-1024h-256zM512 0v256h512v-256h-512zM768 1280v256h256v-256h-256zM1024 256v256h256v768h256v-1280h-256v256h-256zM1024 1536v256h256v-256h-256z" />
<glyph unicode="&#xfb;" d="M256 256v1024h256v-1024h-256zM512 0v256h512v-256h-512zM512 1280v256h256v-256h-256zM768 1536v256h256v-256h-256zM1024 256v256h256v768h256v-1280h-256v256h-256zM1024 1280v256h256v-256h-256z" />
<glyph unicode="&#xfc;" d="M256 256v768h256v-768h-256zM256 1280v256h256v-256h-256zM512 0v256h512v-256h-512zM1024 256v256h256v512h256v-1024h-256v256h-256zM1280 1280v256h256v-256h-256z" />
<glyph unicode="&#xfd;" d="M256 512v768h256v-768h-256zM512 0h768v-256h-768v256zM512 256v256h768v768h256v-1280h-256v256h-768zM768 1280v256h256v-256h-256zM1024 1536v256h256v-256h-256z" />
<glyph unicode="&#xfe;" d="M256 -256v2048h256v-512h768v-256h-768v-512h768v-256h-768v-512h-256zM1280 512v512h256v-512h-256z" />
<glyph unicode="&#xff;" d="M256 512v512h256v-512h-256zM256 1280v256h256v-256h-256zM512 0h768v-256h-768v256zM512 256v256h768v512h256v-1024h-256v256h-768zM1280 1280v256h256v-256h-256z" />
<glyph unicode="&#x152;" d="M256 256v1280h256v-1280h-256zM512 0v256h256v1280h-256v256h1024v-256h-512v-512h512v-256h-512v-512h512v-256h-1024z" />
<glyph unicode="&#x153;" d="M256 256v768h256v-768h-256zM512 0v256h256v768h256v-256h256v256h256v-512h-512v-256h512v-256h-1024zM512 1024v256h256v-256h-256zM1024 1024v256h256v-256h-256z" />
<glyph unicode="&#x178;" d="M256 768v512h256v-512h-256zM256 1536v256h256v-256h-256zM512 512v256h256v-256h-256zM768 0v512h256v-512h-256zM1024 512v256h256v-256h-256zM1280 768v512h256v-512h-256zM1280 1536v256h256v-256h-256z" />
<glyph unicode="&#x2c6;" d="M768 1280v256h256v-256h-256zM1024 1536v256h256v-256h-256zM1280 1280v256h256v-256h-256z" />
<glyph unicode="&#x2dc;" d="M256 1280v256h256v-256h-256zM512 1536v256h512v-256h256v-256h-512v256h-256zM1280 1536v256h256v-256h-256z" />
<glyph unicode="&#x2000;" horiz-adv-x="896" />
<glyph unicode="&#x2001;" />
<glyph unicode="&#x2002;" horiz-adv-x="896" />
<glyph unicode="&#x2003;" />
<glyph unicode="&#x2004;" horiz-adv-x="597" />
<glyph unicode="&#x2005;" horiz-adv-x="448" />
<glyph unicode="&#x2006;" horiz-adv-x="298" />
<glyph unicode="&#x2007;" horiz-adv-x="298" />
<glyph unicode="&#x2008;" horiz-adv-x="224" />
<glyph unicode="&#x2009;" horiz-adv-x="358" />
<glyph unicode="&#x200a;" horiz-adv-x="99" />
<glyph unicode="&#x2010;" d="M256 768v256h1280v-256h-1280z" />
<glyph unicode="&#x2011;" d="M256 768v256h1280v-256h-1280z" />
<glyph unicode="&#x2012;" d="M256 768v256h1280v-256h-1280z" />
<glyph unicode="&#x2013;" d="M256 768v256h1280v-256h-1280z" />
<glyph unicode="&#x2014;" d="M256 768v256h1280v-256h-1280z" />
<glyph unicode="&#x2018;" d="M512 1536v256h256v-256h-256zM768 1280v256h256v-256h-256z" />
<glyph unicode="&#x2019;" d="M768 1280v256h256v-256h-256zM1024 1536v256h256v-256h-256z" />
<glyph unicode="&#x201a;" d="M768 0h256v-256h-256v256zM1024 0v256h256v-256h-256z" />
<glyph unicode="&#x201c;" d="M256 1536v256h256v-256h-256zM512 1280v256h256v-256h-256zM1024 1536v256h256v-256h-256zM1280 1280v256h256v-256h-256z" />
<glyph unicode="&#x201d;" d="M256 1280v256h256v-256h-256zM512 1536v256h256v-256h-256zM1024 1280v256h256v-256h-256zM1280 1536v256h256v-256h-256z" />
<glyph unicode="&#x201e;" d="M256 0h256v-256h-256v256zM512 0v256h256v-256h-256zM1024 0h256v-256h-256v256zM1280 0v256h256v-256h-256z" />
<glyph unicode="&#x2022;" d="M512 512v768h768v-768h-768z" />
<glyph unicode="&#x2026;" d="M256 0v256h256v-256h-256zM768 0v256h256v-256h-256zM1280 0v256h256v-256h-256z" />
<glyph unicode="&#x202f;" horiz-adv-x="358" />
<glyph unicode="&#x2039;" d="M256 768v256h256v-256h-256zM512 512v256h256v-256h-256zM512 1024v256h256v-256h-256zM768 256v256h256v-256h-256zM768 1280v256h256v-256h-256zM1024 0v256h256v-256h-256zM1024 1536v256h256v-256h-256z" />
<glyph unicode="&#x203a;" d="M512 0v256h256v-256h-256zM512 1536v256h256v-256h-256zM768 256v256h256v-256h-256zM768 1280v256h256v-256h-256zM1024 512v256h256v-256h-256zM1024 1024v256h256v-256h-256zM1280 768v256h256v-256h-256z" />
<glyph unicode="&#x205f;" horiz-adv-x="448" />
<glyph unicode="&#x20ac;" d="M256 512v256h256v256h-256v256h256v256h256v-256h512v-256h-512v-256h512v-256h-512v-256h-256v256h-256zM768 0v256h768v-256h-768zM768 1536v256h768v-256h-768zM1536 256v256h256v-256h-256zM1536 1280v256h256v-256h-256z" />
<glyph unicode="&#x2122;" d="M256 1536v256h1024v-256h256v256h256v-768h-256v256h-256v-256h-256v512h-256v-512h-256v512h-256z" />
<glyph unicode="&#xe000;" horiz-adv-x="1280" d="M0 0v1280h1280v-1280h-1280z" />
</font>
</defs>
</svg>
